<?xml version="1.0" encoding="utf-8"?>
<!-- Generator: Adobe Illustrator 21.1.0, SVG Export Plug-In . SVG Version: 6.00 Build 0)  -->
<svg version="1.1" id="Layer_1" xmlns="http://www.w3.org/2000/svg" xmlns:xlink="http://www.w3.org/1999/xlink" x="0px" y="0px"
	 viewBox="0 0 611.9 81.4" style="enable-background:new 0 0 611.9 81.4;" xml:space="preserve">
<style type="text/css">
	.st0{fill:#FFFFFF;}
</style>
<g>
	<g>
		<g>
			<path class="st0" d="M91.6,4.7l-4.2-4.2H70.8l-4.2,4.2l-4.2-4.2H45.8l-4.2,4.2v16.6L20.8,0.5H4.2L0,4.7V63l4.2,4.2h16.6L25,63
				V46.3l20.8,20.8h16.6l4.2-4.2V29.7l20.8,20.8V63l4.2,4.2h16.6l4.2-4.2V50.5l20.8-20.8v25l12.5,12.5h41.6l12.5-12.5V42.2l-4.2-4.2
				h-20.8v4.2h-16.6V25.5h16.6v4.1h20.8l4.2-4.1V13L187.3,0.5h-41.6L133.2,13V4.7L129,0.5h-16.6l-4.2,4.2V13l-8.3,8.3L91.6,13V4.7z"
				/>
		</g>
	</g>
	<g>
		<path class="st0" d="M199.3,2.6c0,1.4-1.2,2.6-2.7,2.6s-2.7-1.1-2.7-2.6c0-1.4,1.2-2.6,2.7-2.6S199.3,1.1,199.3,2.6z M194.6,2.6
			c0,1.1,0.9,2.1,2,2.1s2-0.9,2-2s-0.8-2.1-2-2.1C195.5,0.5,194.6,1.4,194.6,2.6z M196.2,3.9h-0.6V1.3c0.2,0,0.6-0.1,1-0.1
			c0.5,0,0.7,0.1,0.9,0.2s0.3,0.3,0.3,0.6s-0.2,0.5-0.5,0.6l0,0c0.3,0.1,0.4,0.3,0.5,0.6c0.1,0.4,0.1,0.5,0.2,0.6h-0.6
			c-0.1-0.1-0.1-0.3-0.2-0.6c0-0.3-0.2-0.4-0.5-0.4h-0.3L196.2,3.9L196.2,3.9z M196.2,2.5h0.3c0.3,0,0.6-0.1,0.6-0.4
			c0-0.2-0.2-0.4-0.6-0.4c-0.2,0-0.3,0-0.3,0V2.5L196.2,2.5z"/>
	</g>
</g>
<g>
	<path class="st0" d="M248,1.5c4.6,0,8.8,0.9,12.4,2.6c3.7,1.7,6.8,4.1,9.3,7s4.5,6.4,5.8,10.3c1.4,3.9,2,8.1,2,12.5
		s-0.7,8.6-2,12.6c-1.4,3.9-3.3,7.4-5.8,10.3c-2.5,2.9-5.6,5.3-9.3,7c-3.7,1.7-7.8,2.6-12.4,2.6c-4.6,0-8.8-0.9-12.4-2.6
		c-3.7-1.7-6.8-4-9.3-7c-2.5-2.9-4.5-6.4-5.9-10.3s-2-8.1-2-12.6c0-4.4,0.7-8.6,2-12.5c1.4-3.9,3.3-7.4,5.9-10.3
		c2.5-2.9,5.6-5.3,9.3-7C239.3,2.3,243.4,1.5,248,1.5z M248,10.3c-3.3,0-6.1,0.7-8.5,2s-4.3,3.1-5.9,5.3c-1.5,2.2-2.6,4.8-3.3,7.6
		s-1.1,5.7-1.1,8.7s0.4,5.8,1.1,8.7c0.7,2.8,1.8,5.4,3.3,7.6c1.5,2.2,3.5,4,5.9,5.3s5.2,2,8.5,2s6.1-0.7,8.5-2s4.3-3.1,5.9-5.3
		c1.5-2.2,2.6-4.8,3.3-7.6c0.7-2.8,1.1-5.7,1.1-8.7s-0.4-5.8-1.1-8.7c-0.7-2.8-1.8-5.4-3.3-7.6s-3.5-4-5.9-5.3
		C254.2,11,251.3,10.3,248,10.3z"/>
	<path class="st0" d="M286.4,20h9.4v6.1h0.2c1.4-2.6,3.3-4.5,5.8-5.6s5.2-1.7,8.1-1.7c3.5,0,6.6,0.6,9.2,1.9
		c2.6,1.2,4.8,2.9,6.5,5.1s3,4.7,3.9,7.6c0.9,2.9,1.3,6,1.3,9.3c0,3-0.4,5.9-1.2,8.8c-0.8,2.8-2,5.3-3.6,7.5s-3.6,3.9-6,5.2
		c-2.4,1.3-5.3,1.9-8.6,1.9c-1.4,0-2.9-0.1-4.3-0.4s-2.8-0.7-4.2-1.3c-1.3-0.6-2.6-1.3-3.7-2.2s-2.1-2-2.8-3.2h-0.2v22.4h-9.9V20
		H286.4z M320.9,42.5c0-2-0.3-4-0.8-5.9s-1.3-3.6-2.3-5.1c-1-1.5-2.3-2.7-3.9-3.6s-3.4-1.3-5.4-1.3c-4.2,0-7.3,1.4-9.4,4.3
		s-3.2,6.7-3.2,11.5c0,2.3,0.3,4.3,0.8,6.3c0.5,1.9,1.4,3.6,2.5,5s2.4,2.5,3.9,3.3s3.3,1.2,5.3,1.2c2.3,0,4.2-0.5,5.7-1.4
		c1.6-0.9,2.8-2.1,3.9-3.6c1-1.5,1.7-3.1,2.2-5C320.7,46.3,320.9,44.4,320.9,42.5z"/>
	<path class="st0" d="M346.8,45c0,1.7,0.2,3.4,0.7,5s1.2,3,2.2,4.2s2.2,2.2,3.7,2.9s3.3,1.1,5.4,1.1c2.9,0,5.2-0.6,7-1.9
		c1.8-1.2,3.1-3.1,3.9-5.6h9.4c-0.5,2.4-1.4,4.6-2.7,6.5c-1.3,1.9-2.8,3.5-4.6,4.8c-1.8,1.3-3.8,2.3-6,2.9c-2.2,0.7-4.6,1-7,1
		c-3.5,0-6.6-0.6-9.4-1.7c-2.7-1.2-5-2.8-6.9-4.9c-1.9-2.1-3.3-4.6-4.2-7.5c-1-2.9-1.4-6.1-1.4-9.5c0-3.2,0.5-6.2,1.5-9.1
		s2.5-5.4,4.3-7.5c1.9-2.2,4.1-3.9,6.8-5.2c2.7-1.3,5.7-1.9,9-1.9c3.5,0,6.7,0.7,9.5,2.2s5.1,3.4,7,5.9c1.8,2.4,3.2,5.2,4,8.4
		c0.8,3.1,1.1,6.4,0.7,9.8L346.8,45L346.8,45z M369.9,38.5c-0.1-1.6-0.4-3.1-1-4.5c-0.5-1.4-1.3-2.7-2.3-3.8c-1-1.1-2.1-1.9-3.5-2.6
		s-2.9-1-4.5-1c-1.7,0-3.3,0.3-4.7,0.9c-1.4,0.6-2.6,1.4-3.6,2.5s-1.8,2.3-2.4,3.8c-0.6,1.4-0.9,3-1,4.7H369.9z"/>
	<path class="st0" d="M387.3,20h9.4v6.6l0.2,0.2c1.5-2.5,3.5-4.4,5.9-5.9c2.4-1.4,5.1-2.1,8.1-2.1c4.9,0,8.8,1.3,11.6,3.8
		c2.8,2.5,4.2,6.4,4.2,11.4v30.8h-9.9V36.6c-0.1-3.5-0.9-6.1-2.3-7.7s-3.6-2.4-6.5-2.4c-1.7,0-3.2,0.3-4.5,0.9s-2.5,1.4-3.4,2.5
		s-1.6,2.3-2.2,3.8c-0.5,1.4-0.8,3-0.8,4.6v26.4h-9.9L387.3,20L387.3,20z"/>
	<path class="st0" d="M459.8,2.9c9.5,0,16.9,2.4,22,7.3s7.7,12.2,7.7,22.2c0,5.2-0.6,9.8-1.7,13.8c-1.2,4-2.9,7.4-5.4,10.1
		c-2.4,2.7-5.5,4.8-9.3,6.3c-3.8,1.4-8.2,2.2-13.3,2.2h-21.2V2.9H459.8z M460.5,57.9c0.9,0,2.1-0.1,3.5-0.2c1.4-0.1,2.9-0.5,4.4-1
		c1.6-0.5,3.1-1.3,4.6-2.4c1.5-1,2.9-2.5,4.1-4.2c1.2-1.8,2.2-4,3-6.7s1.2-5.9,1.2-9.8c0-3.7-0.4-7-1.1-9.9s-1.9-5.4-3.6-7.5
		c-1.6-2-3.8-3.6-6.4-4.7s-5.8-1.6-9.6-1.6h-13.9v48C446.7,57.9,460.5,57.9,460.5,57.9z"/>
	<path class="st0" d="M538.1,64.6c-1.3,0.8-3,1.1-5.3,1.1c-1.9,0-3.4-0.5-4.6-1.6c-1.1-1.1-1.7-2.8-1.7-5.2c-2,2.4-4.4,4.2-7.1,5.2
		s-5.6,1.6-8.7,1.6c-2,0-3.9-0.2-5.8-0.7s-3.4-1.2-4.7-2.2s-2.4-2.3-3.2-3.9c-0.8-1.6-1.2-3.5-1.2-5.8c0-2.5,0.4-4.6,1.3-6.2
		c0.9-1.6,2-2.9,3.4-3.9s3-1.8,4.9-2.3c1.8-0.5,3.7-1,5.6-1.3c2-0.4,3.9-0.7,5.8-0.9c1.8-0.2,3.4-0.5,4.8-0.9
		c1.4-0.4,2.5-0.9,3.3-1.6c0.8-0.7,1.2-1.8,1.2-3.2c0-1.6-0.3-2.9-0.9-3.9c-0.6-1-1.4-1.7-2.3-2.3s-2-0.9-3.2-1
		c-1.2-0.2-2.4-0.3-3.5-0.3c-3.1,0-5.7,0.6-7.8,1.8c-2.1,1.2-3.2,3.4-3.4,6.7h-7.4c0.1-2.8,0.7-5.1,1.7-7s2.4-3.5,4.2-4.6
		c1.7-1.2,3.7-2,5.9-2.6c2.2-0.5,4.6-0.8,7.2-0.8c2,0,4,0.1,6,0.4s3.8,0.9,5.4,1.8c1.6,0.9,2.9,2.1,3.9,3.8c1,1.6,1.5,3.7,1.5,6.3
		v23c0,1.7,0.1,3,0.3,3.8s0.9,1.2,2,1.2c0.6,0,1.4-0.1,2.3-0.3L538.1,64.6L538.1,64.6z M526.1,41.7c-0.9,0.7-2.1,1.2-3.6,1.5
		s-3.1,0.6-4.7,0.8c-1.6,0.2-3.3,0.4-5,0.7s-3.2,0.7-4.5,1.2c-1.3,0.6-2.4,1.4-3.2,2.5c-0.8,1.1-1.3,2.5-1.3,4.4
		c0,1.2,0.2,2.2,0.7,3.1c0.5,0.8,1.1,1.5,1.9,2s1.7,0.9,2.7,1.1s2.1,0.3,3.3,0.3c2.4,0,4.5-0.3,6.2-1s3.1-1.5,4.2-2.5
		s1.9-2.1,2.4-3.3s0.8-2.3,0.8-3.3L526.1,41.7L526.1,41.7z"/>
	<path class="st0" d="M564.1,20v6.5h-8.9v27.8c0,0.9,0.1,1.6,0.2,2.1c0.1,0.5,0.4,0.9,0.8,1.2c0.4,0.3,1,0.5,1.7,0.6
		s1.7,0.1,2.8,0.1h3.4v6.5h-5.6c-1.9,0-3.5-0.1-4.9-0.4s-2.5-0.7-3.3-1.4s-1.5-1.7-1.9-2.9c-0.4-1.3-0.6-2.9-0.6-5V26.5h-7.6V20h7.6
		V6.6h7.4V20H564.1z"/>
	<path class="st0" d="M611.9,64.6c-1.3,0.8-3,1.1-5.3,1.1c-1.9,0-3.4-0.5-4.6-1.6c-1.1-1.1-1.7-2.8-1.7-5.2c-2,2.4-4.4,4.2-7.1,5.2
		s-5.6,1.6-8.7,1.6c-2,0-3.9-0.2-5.8-0.7s-3.4-1.2-4.7-2.2s-2.4-2.3-3.2-3.9c-0.8-1.6-1.2-3.5-1.2-5.8c0-2.5,0.4-4.6,1.3-6.2
		c0.9-1.6,2-2.9,3.4-3.9s3-1.8,4.9-2.3c1.8-0.5,3.7-1,5.6-1.3c2-0.4,3.9-0.7,5.8-0.9c1.8-0.2,3.4-0.5,4.8-0.9
		c1.4-0.4,2.5-0.9,3.3-1.6c0.8-0.7,1.2-1.8,1.2-3.2c0-1.6-0.3-2.9-0.9-3.9c-0.6-1-1.4-1.7-2.3-2.3s-2-0.9-3.2-1
		c-1.2-0.2-2.4-0.3-3.5-0.3c-3.1,0-5.7,0.6-7.8,1.8c-2.1,1.2-3.2,3.4-3.4,6.7h-7.4c0.1-2.8,0.7-5.1,1.7-7s2.4-3.5,4.2-4.6
		c1.7-1.2,3.7-2,5.9-2.6c2.2-0.5,4.6-0.8,7.2-0.8c2,0,4,0.1,6,0.4s3.8,0.9,5.4,1.8c1.6,0.9,2.9,2.1,3.9,3.8c1,1.6,1.5,3.7,1.5,6.3
		v23c0,1.7,0.1,3,0.3,3.8s0.9,1.2,2,1.2c0.6,0,1.4-0.1,2.3-0.3L611.9,64.6L611.9,64.6z M600,41.7c-0.9,0.7-2.1,1.2-3.6,1.5
		s-3.1,0.6-4.7,0.8c-1.6,0.2-3.3,0.4-5,0.7s-3.2,0.7-4.5,1.2c-1.3,0.6-2.4,1.4-3.2,2.5s-1.3,2.5-1.3,4.4c0,1.2,0.2,2.2,0.7,3.1
		c0.5,0.8,1.1,1.5,1.9,2c0.8,0.5,1.7,0.9,2.7,1.1s2.1,0.3,3.3,0.3c2.4,0,4.5-0.3,6.2-1s3.1-1.5,4.2-2.5s1.9-2.1,2.4-3.3
		s0.8-2.3,0.8-3.3L600,41.7L600,41.7z"/>
</g>
</svg>
