<?xml version="1.0" encoding="utf-8"?>
<!-- Generator: Adobe Illustrator 21.1.0, SVG Export Plug-In . SVG Version: 6.00 Build 0)  -->
<svg version="1.1" id="Layer_1" xmlns="http://www.w3.org/2000/svg" xmlns:xlink="http://www.w3.org/1999/xlink" x="0px" y="0px"
	 viewBox="0 0 266.1 57.2" style="enable-background:new 0 0 266.1 57.2;" xml:space="preserve">
<style type="text/css">
	.st0{fill:#FFFFFF;}
</style>
<path class="st0" d="M5.4,28.7V11.3h13.2c6.9,0,11,3.2,11,8.5c0,5.6-4.6,8.9-11,8.9H5.4z M34.5,19.6c0-7.7-6.1-12.8-15.5-12.8H0.6
	v42.8h4.8V33.1h12.2l12.4,16.6H36L22.9,32.2C29.6,31,34.5,26.8,34.5,19.6 M76.3,45.3H48.9v-15h21.9c-0.3-1.4-0.5-2.9-0.6-4.4H48.9
	V11.3h23.8c0.6-1.4,1.3-2.7,2.2-3.9C74.9,7.2,75,7,75.2,6.9H44v42.8h34.2C77.7,48.3,77,46.8,76.3,45.3"/>
<g>
	<path class="st0" d="M166.4,28.4c0,7.3-5.3,13.3-12.8,13.3s-13-6.1-13-13.5v-0.1c0-7.3,5.3-13.3,12.9-13.3c7.6,0,13,6.1,13,13.5
		V28.4z M153.5,6.1c-13.2,0-22.8,10-22.8,22.2v0.1c0,12.2,9.5,22,22.7,22c13.2,0,22.8-10,22.8-22.1v-0.1
		C176.2,16,166.7,6.1,153.5,6.1 M230.2,6.9v8.7h13v34.1h9.4V15.5h13V6.9H230.2z M117.8,27.3c3.1-1.7,5.6-4.4,5.6-9.2v-0.1
		c0-6.7-5.4-11.1-14.1-11.1h-20c0.3,1.4,0.9,2.9,1.9,4.6c0.6,1.2,1.4,2.4,2.2,3.7h14.5c4,0,6.2,1.6,6.2,4.4v0.1
		c0,3.2-2.6,4.5-6.8,4.5H97c0.1,0.8,0.2,1.6,0.3,2.5c0,0.2,0,0.3,0,0.5c0,1.7-0.2,3.3-0.6,4.8h12.8c4.8,0,7,1.8,7,4.6v0.1
		c0,3.2-2.5,4.6-6.7,4.6H93.2c-0.3,0.7-0.9,2-1.5,3.4c-0.6,1.5-1.3,3.2-2,4.8h20c9.7,0,16-3.9,16-11.7v-0.1
		C125.8,32.1,122.7,29.2,117.8,27.3 M217.3,28.4c0,7.3-5.3,13.3-12.8,13.3c-7.6,0-13-6.1-13-13.5v-0.1c0-7.3,5.3-13.3,12.8-13.3
		c7.6,0,13,6.1,13,13.5V28.4z M204.5,6.1c-13.2,0-22.8,10-22.8,22.2v0.1c0,12.2,9.5,22,22.7,22c13.2,0,22.8-10,22.8-22.1v-0.1
		C227.2,16,217.7,6.1,204.5,6.1"/>
	<path class="st0" d="M93.5,26.8C93.2,17.1,82.7,11.5,86,1.1C79.8,6,74.7,11.7,74,21.2c-1.2,14.3,8.3,23.2,10,34.9
		c0.1-2,1.6-6.3,3.1-10c0.1-0.5,0.2-0.9,0.2-1.4c0.5-7.4-8.5-13.5-8.4-20.9c0.1-2.3,1-5.6,3.1-7.8c-1.4,9.7,8.2,13.9,8.1,23.2v0
		C91.7,35.4,93.6,31.1,93.5,26.8"/>
</g>
</svg>
